<svg height='300px' width='300px'  fill="#000000" xmlns="http://www.w3.org/2000/svg" xmlns:xlink="http://www.w3.org/1999/xlink" version="1.1" x="0px" y="0px" viewBox="-346 256 100 100" enable-background="new -346 256 100 100" xml:space="preserve"><g><path d="M-251.003,331.682c-2.117-0.736-3.78-1.108-4.991-1.108s-2.876,0.372-4.994,1.108c-2.117,0.742-3.779,1.114-4.989,1.114   c-1.003,0-2.344-0.269-3.989-0.777c-0.34-0.106-0.674-0.21-1.041-0.337c-1.675-0.583-3.052-0.927-4.157-1.049   c-0.285-0.035-0.559-0.06-0.8-0.06c-0.006,0-0.012,0.003-0.02,0.003c-0.004,0-0.012-0.003-0.016-0.003   c-1.022,0-2.39,0.28-4.061,0.809c-0.311,0.096-0.613,0.184-0.947,0.3c-2.138,0.735-3.803,1.104-5.009,1.11   c-0.522-0.004-1.146-0.083-1.84-0.222c-0.892-0.184-1.926-0.471-3.137-0.889c-1.059-0.362-1.964-0.605-2.789-0.787   c-0.248-1.626-0.622-3.626-1.176-5.994c1.07,0.146,2.387,0.483,3.965,1.022c2.15,0.741,3.796,1.112,4.94,1.112   c1.211,0,2.891-0.371,5.045-1.112c2.15-0.735,3.832-1.106,5.043-1.106c1.14,0,2.786,0.371,4.942,1.106   c2.149,0.741,3.832,1.112,5.045,1.112h1.009c0.065,0,0.164,0.003,0.3,0c0.519-0.017,1.051-0.15,1.513-0.307   c1.686-0.568,5.666-3.167,8.628-6.835c5.591-6.921,7.986-14.112,7.986-14.112l-23.699,3.675v-11.931h-12.906v-19.972h-4.547v32.904   l-27.928-41.02l-3.506,2.387l8.439,12.396h-10.681v4.243h4.423l-0.013,0.078c-0.023,0.134-2.292,13.557-6.508,23.287   c-3.819,8.812-9.306,15.163-13.001,18.777c-1.168,0.074-2.685,0.423-4.589,1.076c-2.151,0.742-3.801,1.114-4.941,1.114v7.361   c1.141,0,2.79-0.368,4.941-1.111c2.15-0.739,3.834-1.107,5.044-1.107c1.211,0,2.873,0.368,4.993,1.107   c2.119,0.743,3.781,1.111,4.992,1.111c0.011,0,0.023-0.004,0.036-0.004v0.004c0.233,0,0.505-0.025,0.783-0.057   c1.109-0.121,2.493-0.464,4.175-1.055c0.449-0.155,0.865-0.287,1.271-0.411c1.531-0.456,2.785-0.693,3.737-0.696   c1.005,0.003,2.347,0.271,3.994,0.779c0.333,0.104,0.659,0.203,1.018,0.328c1.663,0.583,3.033,0.926,4.136,1.052   c0.292,0.034,0.573,0.06,0.819,0.06c0.006,0,0.012,0,0.019,0c0.005,0,0.011,0,0.016,0c1.021,0,2.384-0.278,4.048-0.806   c0.316-0.097,0.624-0.189,0.964-0.306c2.131-0.733,3.801-1.102,5.009-1.107c0.501,0.003,1.1,0.08,1.764,0.208   c0.906,0.182,1.964,0.472,3.21,0.899c1.211,0.418,2.259,0.706,3.173,0.887c0.69,0.14,1.306,0.225,1.804,0.225   c0.01,0,0.023,0,0.036-0.004c0.008,0.004,0.022,0.004,0.033,0.004c1.211,0,2.871-0.368,4.989-1.111   c0.328-0.115,0.627-0.206,0.934-0.303c1.686-0.523,3.057-0.802,4.076-0.805c0.253,0,0.529,0.025,0.819,0.056   c1.067,0.125,2.439,0.468,4.143,1.052c0.373,0.128,0.711,0.231,1.056,0.337c1.621,0.506,2.951,0.774,3.952,0.774v-0.004   c0.012,0,0.024,0.004,0.037,0.004c1.21,0,2.872-0.368,4.989-1.111c2.118-0.739,3.783-1.107,4.994-1.107s2.874,0.368,4.991,1.107   c2.118,0.743,3.785,1.111,4.995,1.111v-7.361C-247.218,332.796-248.885,332.424-251.003,331.682z M-281.825,303.053h6.525v6.522   h-6.525V303.053z M-314.124,295.082c1.434,3.349,3.155,7.856,4.452,12.811c-1.293-0.078-2.717-0.085-4.246-0.003   C-313.785,303.26-313.932,298.645-314.124,295.082z M-314.013,310.293c1.826-0.108,3.474-0.07,4.94,0.056   c0.362,1.616,0.669,3.264,0.896,4.916c0.045,0.329,0.075,0.637,0.115,0.957c-1.727-0.493-3.704-0.85-6.375-0.883   C-314.243,313.715-314.104,312.021-314.013,310.293z M-316.413,297.604c0.13,3.201,0.199,6.946,0.083,10.645   c-1.139,0.278-2.442,0.675-3.549,1.035C-318.425,305.312-317.269,301.136-316.413,297.604z M-321.27,312.783   c0.083-0.19,0.16-0.387,0.241-0.581c1.131-0.397,3.007-1.021,4.589-1.45c-0.091,1.599-0.225,3.159-0.41,4.64   c-0.327,0.016-0.627,0.021-0.975,0.048c-1.655,0.123-3.671,0.654-5.282,1.159C-322.47,315.376-321.848,314.118-321.27,312.783z    M-320.656,331.557c-0.135,0.043-0.258,0.078-0.397,0.125c-1.707,0.589-3.087,0.936-4.157,1.055c-0.289,0.031-0.57,0.06-0.819,0.06   c-1.211,0-2.873-0.372-4.992-1.114c-0.886-0.31-1.673-0.537-2.399-0.719c0.989-1.026,2.054-2.216,3.155-3.553   c0.707-0.214,6.757-2.021,9.622-2.329c0.733-0.079,1.412-0.125,2.073-0.159C-319.311,328.026-320.047,330.146-320.656,331.557z    M-320.899,322.697c-1.816,0.196-4.676,0.907-6.898,1.513c0.993-1.376,1.981-2.867,2.943-4.476c0.908-0.342,4.67-1.715,7.209-1.905   c0.159-0.012,0.29-0.014,0.443-0.022c-0.271,1.735-0.55,3.296-0.835,4.691C-318.933,322.531-319.875,322.588-320.899,322.697z    M-308.12,332.515c-0.833-0.185-1.781-0.453-2.879-0.833c-0.365-0.125-0.696-0.223-1.034-0.327   c-1.633-0.51-2.971-0.781-3.976-0.781c-0.005,0-0.011,0.003-0.018,0.003c-0.006,0-0.012-0.003-0.017-0.003   c-0.498,0-1.079,0.068-1.731,0.196c0.543-1.51,1.115-3.444,1.678-5.895c3.985,0.097,6.478,0.996,8.43,1.698   c0.032,0.012,0.06,0.021,0.091,0.033C-307.664,328.995-307.88,330.977-308.12,332.515z M-315.59,322.504   c0.284-1.436,0.56-3.03,0.825-4.775c3.041,0.01,5.077,0.467,6.976,1.082c0.163,1.888,0.248,3.658,0.257,5.269   C-309.478,323.393-311.948,322.643-315.59,322.504z M-307.135,308.145c-1.1-4.437-2.541-8.538-3.879-11.862   c2.637,3.441,5.71,7.922,8.154,12.78C-303.987,308.723-305.418,308.383-307.135,308.145z M-306.558,310.669   c2.625,0.452,4.368,1.131,5.128,1.472c0.473,1.106,0.917,2.218,1.292,3.342c0.079,0.232,0.145,0.454,0.221,0.687h-5.738   c-0.05-0.411-0.09-0.809-0.148-1.23C-306,313.5-306.264,312.074-306.558,310.669z M-301.028,331.682   c-0.334,0.118-0.637,0.209-0.949,0.309c-1.519,0.474-2.765,0.733-3.744,0.783c0.24-1.555,0.45-3.514,0.542-5.846   c1.167-0.146,2.649-0.471,4.199-1.005c1.415-0.482,2.588-0.795,3.566-0.96c0.523,2.191,0.892,4.072,1.146,5.627   C-297.456,330.629-299.032,330.984-301.028,331.682z M-297.399,316.169c-0.153-0.481-0.3-0.949-0.466-1.445   c-3.552-10.659-11.588-20.637-15.214-24.788h6.282l17.858,26.233H-297.399z"></path></g></svg>